<svg width="471" height="145" viewBox="0 0 471 145" fill="none" xmlns="http://www.w3.org/2000/svg">
<path d="M14.0396 145C11.6519 145 9.16874 144.81 6.59002 144.429C3.91581 144.143 1.71914 143.763 0 143.288V126.59C1.71914 126.97 3.34277 127.255 4.87088 127.446C6.39901 127.732 8.11814 127.874 10.0283 127.874C12.8935 127.874 15.3289 127.065 17.3347 125.448C19.3403 123.831 20.3431 120.691 20.3431 116.028V32.8247H41.6891V119.168C41.6891 123.926 40.7817 128.255 38.9671 132.156C37.1525 136.057 34.1917 139.149 30.0849 141.432C26.0736 143.811 20.7252 145 14.0396 145ZM19.4836 12.7017C19.4836 8.7056 20.5819 5.99398 22.7786 4.56681C25.0707 3.04449 27.8405 2.28334 31.0877 2.28334C34.2395 2.28334 36.9615 3.04449 39.2536 4.56681C41.5458 5.99398 42.6919 8.7056 42.6919 12.7017C42.6919 16.6026 41.5458 19.3142 39.2536 20.8365C36.9615 22.3588 34.2395 23.1199 31.0877 23.1199C27.8405 23.1199 25.0707 22.3588 22.7786 20.8365C20.5819 19.3142 19.4836 16.6026 19.4836 12.7017Z" fill="#294E6D"/>
<path d="M125.425 71.6435C125.425 78.1139 124.518 83.87 122.703 88.9127C120.984 93.9553 118.453 98.2365 115.11 101.757C111.863 105.182 107.9 107.798 103.22 109.607C98.54 111.319 93.2392 112.175 87.3178 112.175C81.8741 112.175 76.8118 111.319 72.1322 109.607C67.5476 107.798 63.5841 105.182 60.2414 101.757C56.8986 98.2365 54.2721 93.9553 52.362 88.9127C50.5473 83.87 49.64 78.1139 49.64 71.6435C49.64 62.9856 51.1682 55.707 54.2244 49.8081C57.2807 43.814 61.674 39.247 67.4041 36.1073C73.1348 32.9675 79.916 31.3976 87.7476 31.3976C95.1016 31.3976 101.596 32.9675 107.231 36.1073C112.866 39.247 117.307 43.814 120.555 49.8081C123.802 55.707 125.425 62.9856 125.425 71.6435ZM71.4159 71.6435C71.4159 76.7819 71.9408 81.1103 72.9913 84.6308C74.1375 88.0561 75.9048 90.6729 78.2921 92.4803C80.6801 94.1927 83.7843 95.0492 87.6041 95.0492C91.4246 95.0492 94.481 94.1927 96.7733 92.4803C99.1606 90.6729 100.88 88.0561 101.931 84.6308C103.077 81.1103 103.649 76.7819 103.649 71.6435C103.649 66.506 103.077 62.2244 101.931 58.7993C100.88 55.3741 99.1606 52.8052 96.7733 51.0925C94.3853 49.38 91.2811 48.5237 87.4613 48.5237C81.8262 48.5237 77.7194 50.4741 75.1407 54.3751C72.6571 58.1808 71.4159 63.937 71.4159 71.6435Z" fill="#294E6D"/>
<path d="M342.254 29.1142C350.659 29.1142 357.392 31.3977 362.454 35.9646C367.516 40.4364 370.047 47.6674 370.047 57.6575V108.465H348.701V62.938C348.701 57.3245 347.698 53.1382 345.692 50.379C343.687 47.5247 340.487 46.0975 336.094 46.0975C329.599 46.0975 325.158 48.3334 322.771 52.8052C320.383 57.1818 319.189 63.5089 319.189 71.7865V108.465H297.843V30.5414H314.175L317.04 40.5315H318.186C319.905 37.8675 322.007 35.7267 324.49 34.1093C326.973 32.3967 329.743 31.1598 332.799 30.3986C335.855 29.5424 339.007 29.1142 342.254 29.1142Z" fill="#294E6D"/>
<path d="M399.735 30.5414V108.465H378.389V30.5414H399.735ZM389.134 0C392.285 0 395.008 0.761156 397.3 2.28347C399.591 3.71064 400.738 6.42225 400.738 10.4183C400.738 14.3193 399.591 17.0308 397.3 18.5532C395.008 20.0755 392.285 20.8366 389.134 20.8366C385.886 20.8366 383.117 20.0755 380.825 18.5532C378.628 17.0308 377.53 14.3193 377.53 10.4183C377.53 6.42225 378.628 3.71064 380.825 2.28347C383.117 0.761156 385.886 0 389.134 0Z" fill="#294E6D"/>
<path d="M444.783 108.465C437.047 108.465 430.457 107.085 425.013 104.326C419.569 101.472 415.414 97.0947 412.549 91.1962C409.684 85.2971 408.251 77.7328 408.251 68.5041C408.251 58.9896 409.875 51.2353 413.122 45.2412C416.369 39.2471 420.858 34.8229 426.589 31.9685C432.415 29.1142 439.1 27.687 446.645 27.687C451.994 27.687 456.626 28.2103 460.542 29.257C464.553 30.3035 468.039 31.5404 471 32.9675L464.697 49.38C461.354 48.0479 458.202 46.9538 455.241 46.0975C452.376 45.2412 449.51 44.813 446.645 44.813C442.921 44.813 439.816 45.7169 437.333 47.5247C434.85 49.2373 432.988 51.8538 431.746 55.3741C430.6 58.7993 430.027 63.1283 430.027 68.3611C430.027 73.4988 430.648 77.7807 431.89 81.2061C433.226 84.5357 435.137 87.0573 437.62 88.7697C440.103 90.3869 443.112 91.1962 446.645 91.1962C451.134 91.1962 455.098 90.625 458.536 89.4832C461.974 88.2463 465.317 86.5812 468.564 84.4885V102.613C465.317 104.706 461.879 106.181 458.25 107.038C454.715 107.989 450.227 108.465 444.783 108.465Z" fill="#294E6D"/>
<path d="M132.593 110.928V2.53557H153.111L152.575 43.2499H153.646C165.956 28.9641 175.202 27.854 188.614 33.607C199.854 38.4284 206.515 46.9998 208.061 52.8927L205.206 54.1427C200.746 59.857 196.643 64.4404 194.858 65.9284C192.004 54.857 175.055 44.857 165.599 46.8213C156.144 48.7856 149.899 68.6073 154.359 80.7502C158.82 92.8924 171.294 98.2399 180.586 92.8924C187.722 88.7859 194.561 73.1906 200.746 63.4284C200.151 66.6427 199.14 73.4644 199.854 75.0358C200.746 76.9997 202.352 76.643 205.741 75.2139C208.453 74.0714 209.845 66.9998 210.202 63.607C212.045 63.3689 217.052 62.7499 222.334 62.1784C227.614 61.607 232.027 61.4642 233.573 61.4642C235.358 61.4046 238.569 61.857 237.141 64.1427C235.714 66.4284 232.503 67.357 231.075 67.5356L219.657 69.6782L228.221 69.5002C230.897 69.0234 236.178 68.5358 235.892 70.3924C235.535 72.7145 234.822 72.5357 232.86 73.9642C231.29 75.1073 222.69 76.1068 218.586 76.4642C221.263 76.643 227.222 76.8925 229.648 76.4642C232.075 76.0353 232.919 76.5236 233.038 76.821C233.276 77.1784 233.038 78.3573 230.183 80.214C227.416 82.0147 221.295 81.7227 218.323 81.3234C218.645 81.43 219.221 81.635 220.192 81.9999C222.476 82.857 226.377 82.5954 228.043 82.3573C228.697 82.2379 230.005 82.4281 230.005 84.1425C230.005 85.8569 227.151 87.1187 225.723 87.5355C225.783 87.2381 225.509 86.3573 223.939 85.2141C221.976 83.7857 221.263 84.8567 220.371 85.7496C219.657 86.4638 219.241 86.2858 219.122 86.1071C218.527 84.9761 216.981 82.7141 215.554 82.7141C213.769 82.7141 211.629 85.7496 211.629 85.5716C211.629 85.4286 210.915 84.7974 210.558 84.4999C207.347 82.8928 205.385 86.4638 204.85 86.8213C204.421 87.1072 204.79 88.0116 205.027 88.4284L204.671 88.6071C203.034 88.0609 200.568 89.8568 198.962 93.4286C196.955 97.8925 195.452 101.958 194.858 102.714C190.101 109.381 180.372 112.393 170.952 112.536C159.176 112.714 155.073 103.964 154.359 101.464C153.789 99.4639 153.052 100.631 152.754 101.464L148.65 110.928H132.593Z" fill="#294E6D"/>
<path d="M212.699 55.7498C216.267 56.3212 219.181 55.0355 220.192 54.3212C232.859 16.6427 292.213 16.2115 293.161 68.7853C294.053 118.25 258.907 111.643 249.629 111.643C240.352 111.643 222.905 100.815 225.009 97.1783C226.972 93.7853 228.042 90.9285 231.075 87.3568C233.501 84.4999 233.097 83.1902 233.573 81.6424C235.535 88.9639 248.307 97.1783 253.733 97.1783H253.734C259.264 97.1783 264.616 97.1783 271.574 90.2143C278.532 83.2496 280.494 54.4998 268.898 48.4285C257.301 42.357 252.306 44.857 245.883 48.4285C241.011 51.1377 240.233 58.845 238.925 62.8926C238.069 61.0355 237.022 60.5712 236.606 60.5712C236.249 59.4998 217.694 61.6426 213.591 61.6426C209.487 61.6426 208.595 62.5355 207.525 65.7497C206.669 68.3213 205.741 71.226 205.384 72.357C205.265 73.1899 204.421 74.6784 201.995 73.9642C199.568 73.2499 202.53 62.8331 204.314 57.714C205.622 56.8212 209.131 55.1784 212.699 55.7498Z" fill="#294E6D"/>
<path d="M203.835 90.8428C203.181 90.6567 202.004 91.0917 201.497 91.3325C201.558 91.5476 202.007 92.6199 203.122 93.3881C204.014 94.0025 205.377 93.5506 205.947 93.2485C205.84 92.9861 205.589 92.361 205.437 91.9603C205.247 91.4593 204.654 91.0762 203.835 90.8428Z" fill="#294E6D"/>
<path d="M211.338 87.9563C210.789 85.8022 209.04 86.3499 208.134 86.4079C208.062 86.4092 207.761 86.4942 206.955 87.0998C205.586 88.1297 206.934 91.5786 207.372 92.8681C207.721 93.8993 208.677 94.1367 209.111 94.1266C209.619 94.0659 210.782 93.79 211.365 93.1696C212.092 92.394 212.026 90.6479 211.338 87.9563Z" fill="#294E6D"/>
<path d="M217.695 86.1934C216.946 85.0557 215.686 85.0374 215.149 85.1703C214.492 85.3065 213.117 85.8838 212.879 87.1025C212.582 88.6267 212.817 88.9457 212.805 90.5353C212.793 92.1242 213.604 92.5019 214.018 92.8533C214.433 93.2047 214.996 93.4798 216.687 92.9342C218.039 92.4972 218.518 90.6513 218.588 89.7827C218.603 89.0604 218.444 87.3305 217.695 86.1934Z" fill="#294E6D"/>
<path d="M224.748 90.105C224.839 89.7415 224.661 88.338 223.984 87.4869C223.46 86.83 222.026 86.8368 221.305 86.9292C220.691 86.9724 220.011 87.8174 219.891 88.3037C219.77 88.7946 219.237 90.9089 219.649 91.5631C219.826 92.1006 220.559 93.0799 222.082 92.6968C223.985 92.218 224.665 90.4328 224.748 90.105Z" fill="#294E6D"/>
<path d="M221.231 86.9393C221.255 86.9359 221.28 86.9326 221.305 86.9292ZM221.305 86.9292C222.026 86.8368 223.46 86.83 223.984 87.4869C224.661 88.338 224.839 89.7415 224.748 90.105C224.665 90.4328 223.985 92.218 222.082 92.6968C220.559 93.0799 219.826 92.1006 219.649 91.5631C219.237 90.9089 219.77 88.7946 219.891 88.3037C220.011 87.8174 220.691 86.9724 221.305 86.9292ZM201.497 91.3325C202.004 91.0917 203.181 90.6567 203.835 90.8428C204.654 91.0762 205.247 91.4593 205.437 91.9603C205.589 92.361 205.84 92.9861 205.947 93.2485C205.377 93.5506 204.014 94.0025 203.122 93.3881C202.007 92.6199 201.558 91.5476 201.497 91.3325ZM208.134 86.4079C209.04 86.3499 210.789 85.8022 211.338 87.9563C212.026 90.6479 212.092 92.394 211.365 93.1696C210.782 93.79 209.619 94.0659 209.111 94.1266C208.677 94.1367 207.721 93.8993 207.372 92.8681C206.934 91.5786 205.586 88.1297 206.955 87.0998C207.761 86.4942 208.062 86.4092 208.134 86.4079ZM215.149 85.1703C215.686 85.0374 216.946 85.0557 217.695 86.1934C218.444 87.3305 218.603 89.0604 218.588 89.7827C218.518 90.6513 218.039 92.4972 216.687 92.9342C214.996 93.4798 214.433 93.2047 214.018 92.8533C213.604 92.5019 212.793 92.1242 212.805 90.5353C212.817 88.9457 212.582 88.6267 212.879 87.1025C213.117 85.8838 214.492 85.3065 215.149 85.1703Z" fill="#294E6D"/>
</svg>
